<?xml version="1.0" ?><svg version="1.1" viewBox="0 0 100 100" xmlns="http://www.w3.org/2000/svg" xmlns:xlink="http://www.w3.org/1999/xlink">
<style type="text/css">
	.screenCircle{fill:#D5E2EB;}
	.screen{fill:lightblue;}
	.miniCircle{fill:yellow;}
	.keyboard, .carrito, .box{
	fill:grey; 
	stroke: white;}
	.euru{
	fill:yellow;
	stroke-width:1px;
	stroke:white;}
	.bolsa{fill:#B45F04;}
	
</style>
	<g id="logo" transform="translate(-1,-1) scale(0.4)">
		<g id="Layer_2">
			<circle class="screenCircle" cx="128" cy="128" r="120"/>
		</g>
		<g id="Layer_1">
			<g>
				<g>
					<path class="box" d="M58.17838,154.6655h139.68784V69.32594c0-2.49929-2.04488-4.54417-4.54417-4.54417H62.72255
					c-2.4993,0-4.54417,2.04488-4.54417,4.54417V154.6655z"/>
				</g>
				<g>
					<path class="box" d="M148.40526,174.3745c0.73039,2.08173-0.8455,4.07103-2.8476,4.07103H136.2H119.8h-9.35766
					c-2.00211,0-3.578-1.9893-2.8476-4.07103H46v5.86537c0,6.06319,4.91518,10.97836,10.97836,10.97836H119.8H136.2h62.82164
					c6.06319,0,10.97836-4.91518,10.97836-10.97836v-5.86537H148.40526z"/>
				</g>
				<g>
					<rect class="screen" height="71.70703" width="121.51115" x="67.26672" y="73.87012"/>
				</g>
				<g>
					<polygon class="keyboard" points="197.86621,157.55962 58.17838,157.55962 46,174.3745 210,174.3745"/>
				</g>
				<g>
					<circle class="miniCircle" cx="199.79562" cy="182.57449" r="2.89412"/>
				</g>
			</g>
		</g>
	
        <g  class="bolsa" transform="translate(120,85) scale(0.6)">
            <path d="M14.4,2.6 C14.4,2.6 24.5,-4.3 26.1,6"/>
            <path d="M25.4,3.2 C25.4,3.2 27.2,-0.4 36,0.1 C36,2.9 33.4,10 29.5,11.3 C39,16.9 46,33.5 46,43.5 C46,55.6 36.7,62.1 24,62.1 C11.3,62.1 0,55.6 0,43.5 C0,33.6 6.9,16.9 16.5,11.3 C12.6,10 10,2.9 10,0.1 C10,0.1 14.4,4 20,4"/>
            <path d="M16.4,11 L31.1,11"/>
            <path d="M31.1,12.3 C31.1,12.3 42.3,12 42.3,18.3"/>
            <path d="M31.3,10.4 C31.3,10.4 40,10.9 45.2,7.6"/>
 
        </g>
		
		
		<g class="carrito" transform="translate(90,82) scale(0.14)">
			<g>
				<polygon points="424.543,318.405 172.047,318.405 65.892,75.806 0,75.806 0,45.479 85.736,45.479 191.892,288.084      424.543,288.084    "/>
			</g>
			<path d="M272.919,394.227c0,25.109-20.376,45.49-45.49,45.49c-25.113,0-45.49-20.381-45.49-45.49    c0-25.117,20.376-45.489,45.49-45.489C252.543,348.737,272.919,369.109,272.919,394.227z"/>
			<path d="M424.543,394.227c0,25.109-20.372,45.49-45.485,45.49s-45.49-20.381-45.49-45.49c0-25.117,20.377-45.489,45.49-45.489    S424.543,369.109,424.543,394.227z"/>
			<g>
				<polygon points="473.053,136.457 485.196,106.131 151.628,106.131 163.756,136.457    "/>
				<polygon points="200.138,227.435 212.266,257.762 424.543,257.762 436.687,227.435    "/>
				<polygon points="460.941,166.784 175.883,166.784 188.011,197.108 448.798,197.108    "/>
			</g>
		</g>
		<path class="euru" transform="translate(125,100) scale(0.6)" d="M23.2,18.8c-0.4-0.4-1-0.3-1.4,0.1L21.7,19c-0.9,1-2.7,2.9-5.7,2.9c-2,0-3.8-0.8-5.2-2.1c-0.3-0.3-0.1-0.9,0.4-0.9H14  c0.6,0,1-0.4,1-1v-2c0-0.6-0.4-1-1-1H8.6c-0.2,0-0.5-0.2-0.5-0.4C8,14,8,13.5,8,12.9s0-1.1,0.1-1.6c0-0.2,0.3-0.4,0.5-0.4H14  c0.6,0,1-0.4,1-1v-2c0-0.6-0.4-1-1-1h-2.8c-0.4,0-0.7-0.6-0.4-0.9C12.2,4.7,14,3.9,16,3.9c3,0,4.8,2,5.7,2.9l0.1,0.1  c0.4,0.4,1,0.4,1.4,0.1l1.5-1.3C24.9,5.5,25,5.3,25,5c0-0.3-0.1-0.5-0.3-0.7C23.6,3.2,20.8,0,16,0C11.5,0,7.5,2.7,5.5,6.7  C5.4,6.9,5.2,7,5.1,7H2C1.4,7,1,7.4,1,8v2c0,0.6,0.4,1,1,1h1.6c0.3,0,0.5,0.3,0.5,0.6C4,12.1,4,12.6,4,13s0,1,0.1,1.4  c0,0.3-0.2,0.6-0.5,0.6H2c-0.6,0-1,0.4-1,1v2c0,0.6,0.4,1,1,1h3.1c0.2,0,0.4,0.1,0.4,0.3c2,4,6,6.7,10.5,6.7c4.8,0,7.6-3.1,8.7-4.3  c0.2-0.2,0.3-0.4,0.3-0.7c0-0.3-0.1-0.6-0.3-0.7L23.2,18.8z"/>
	</g>
</svg>
